<svg width="850" height="250" viewBox="0 0 850 250" xmlns="http://www.w3.org/2000/svg" role="img" aria-label="Tech Stack">
  <rect width="850" height="250" rx="16" fill="#0f1623"/>
  <text x="30" y="40" fill="#f1f5f9" font-family="Segoe UI, Arial" font-size="24" font-weight="700">Language Telemetry + Focus Sectors</text>
  <g font-family="Segoe UI, Arial">
    <text x="30" y="78" fill="#94a3b8" font-size="13">TypeScript</text>
    <rect x="130" y="65" width="600" height="12" rx="6" fill="#1a2332"/>
    <rect x="130" y="65" width="380" height="12" rx="6" fill="#a78bfa"/>
    <text x="30" y="108" fill="#94a3b8" font-size="13">HTML</text>
    <rect x="130" y="95" width="600" height="12" rx="6" fill="#1a2332"/>
    <rect x="130" y="95" width="345" height="12" rx="6" fill="#a78bfa"/>
    <text x="30" y="138" fill="#94a3b8" font-size="13">Python</text>
    <rect x="130" y="125" width="600" height="12" rx="6" fill="#1a2332"/>
    <rect x="130" y="125" width="310" height="12" rx="6" fill="#00d4ff"/>
    <text x="30" y="168" fill="#94a3b8" font-size="13">Modelos</text>
    <rect x="130" y="155" width="600" height="12" rx="6" fill="#1a2332"/>
    <rect x="130" y="155" width="275" height="12" rx="6" fill="#00d4ff"/>
    <text x="30" y="198" fill="#94a3b8" font-size="13">C</text>
    <rect x="130" y="185" width="600" height="12" rx="6" fill="#1a2332"/>
    <rect x="130" y="185" width="240" height="12" rx="6" fill="#ffb020"/>
    <text x="30" y="228" fill="#94a3b8" font-size="13">Linux</text>
    <rect x="130" y="215" width="600" height="12" rx="6" fill="#1a2332"/>
    <rect x="130" y="215" width="205" height="12" rx="6" fill="#ffb020"/>
  </g>
  <g transform="translate(730 150)">
    <polygon points="0,-55 50,-16 31,44 -31,44 -50,-16" fill="none" stroke="#a78bfa" stroke-opacity="0.7"/>
    <polygon points="0,-38 34,-11 21,30 -21,30 -34,-11" fill="none" stroke="#00d4ff" stroke-opacity="0.8">
      <animateTransform attributeName="transform" type="rotate" from="0" to="360" dur="16s" repeatCount="indefinite"/>
    </polygon>
    <text x="0" y="4" text-anchor="middle" fill="#f1f5f9" font-family="Segoe UI, Arial" font-size="10">Focus</text>
  </g>
</svg>
